<svg width="148" height="33" viewBox="0 0 148 33" fill="none" xmlns="http://www.w3.org/2000/svg">
<g clip-path="url(#clip0_101_6)">
<path d="M51.537 11.0246L51.0019 8.21304H47.1605V25.641H51.915V17.6748C51.915 13.9273 54.024 12.7406 56.4475 12.7406C56.8888 12.7406 57.3302 12.7723 57.8654 12.8977V8.151C57.4991 8.11386 57.1314 8.09316 56.7633 8.08896C55.2833 8.08896 52.5136 8.71332 51.537 11.0246V11.0246ZM85.7581 0H81.0049V25.641H85.7581V0ZM13.2856 21.3932C9.22489 21.3932 5.10071 18.4576 5.10071 13.1168C5.10071 7.40124 9.44425 4.71636 13.2222 4.71636C16.1505 4.71636 18.134 6.08916 19.5188 8.24472L23.0761 5.1216C20.9354 2.03016 17.5354 0 13.2222 0C6.42214 0 0 5.09124 0 13.1168C0 21.1121 6.20146 26.1716 13.2856 26.1716C17.5988 26.1716 21.0292 24.0161 23.1712 21.1121L19.8346 18.2384C18.5436 20.0508 16.0871 21.3932 13.2856 21.3932V21.3932ZM68.9786 7.6824C63.7206 7.6824 59.5964 11.5553 59.5964 16.9277C59.5964 22.2671 63.7206 26.1716 68.9786 26.1716C74.2365 26.1716 78.3607 22.2671 78.3607 16.9277C78.3607 11.5553 74.2365 7.6824 68.9786 7.6824V7.6824ZM68.9786 21.8922C66.6489 21.8922 64.3509 20.2066 64.3509 16.9277C64.3509 13.6475 66.6489 11.9618 68.9786 11.9618C71.3082 11.9618 73.6062 13.6171 73.6062 16.9277C73.6062 20.2382 71.3082 21.8922 68.9786 21.8922ZM98.0051 7.6824C92.7484 7.6824 88.6229 11.5553 88.6229 16.9277C88.6229 22.2671 92.7484 26.1716 98.0051 26.1716C103.264 26.1716 107.387 22.2671 107.387 16.9277C107.387 11.5553 103.231 7.6824 98.0051 7.6824V7.6824ZM98.0051 21.8922C95.6754 21.8922 93.3774 20.2066 93.3774 16.9277C93.3774 13.6475 95.6767 11.9618 98.0051 11.9618C100.335 11.9618 102.634 13.6171 102.634 16.9277C102.634 20.2382 100.304 21.8922 98.0051 21.8922ZM37.6845 18.3638C37.6845 20.394 36.4569 21.7985 34.3796 21.7985C32.1755 21.7985 31.1685 20.2369 31.1685 18.3005V8.21304H26.3823V19.2377C26.3823 23.0168 28.8071 26.1083 33.0569 26.1083C34.9148 26.1083 36.9604 25.3902 37.9052 23.7666L38.2514 25.641H42.4073V8.21172H37.6528V18.3625H37.6845V18.3638ZM123.79 5.99676L121.429 8.33844C120.402 7.90839 119.3 7.68543 118.186 7.6824C113.809 7.6824 110.473 10.6181 110.473 14.8975C110.473 17.1455 111.732 19.2377 113.244 20.3003C112.393 20.8626 111.605 21.6124 111.133 22.5482L111.04 22.7674L114.722 24.5784L114.818 24.3606C115.415 23.1106 116.769 22.2988 118.218 22.2988C120.358 22.2988 121.996 23.8603 121.996 26.1096C121.996 28.1384 120.265 29.7634 118.216 29.7634C117.053 29.7634 115.447 29.201 114.786 27.6078L114.691 27.39L110.913 29.2314L111.008 29.4505C112.267 32.043 115.007 33.6349 118.154 33.6349C122.72 33.6349 126.183 30.5435 126.183 26.2654C126.183 23.7046 124.86 21.7061 123.098 20.299C124.735 19.0186 125.899 17.1455 125.899 14.9279C125.899 13.0535 125.332 11.8681 124.357 10.5877L126.371 8.58792L123.79 5.99676V5.99676ZM118.186 18.3955C116.266 18.3955 114.754 16.9277 114.754 14.9596C114.754 12.899 116.266 11.5236 118.186 11.5236C120.168 11.5236 121.618 12.9611 121.618 14.9596C121.649 16.958 120.201 18.3955 118.186 18.3955ZM142.931 8.21304L138.397 17.9573L133.927 8.21304H128.607L135.848 22.9852L135.502 23.6729L130.433 33.4171H135.47L148 8.21304H142.931Z" fill="#535399"/>
</g>
<defs>
<clipPath id="clip0_101_6">
<rect width="148" height="33" fill="white"/>
</clipPath>
</defs>
</svg>
